<svg xmlns="http://www.w3.org/2000/svg" viewBox="0 0 100 100">
  <g fill="none" stroke="#0a2d5f" stroke-width="2.8" stroke-linecap="square" stroke-linejoin="miter">
    <circle cx="50" cy="24" r="8"/>
    <circle cx="28" cy="31" r="7"/>
    <circle cx="72" cy="31" r="7"/>
    <circle cx="13" cy="39" r="6"/>
    <circle cx="87" cy="39" r="6"/>
    <path d="M35 75V60c0-11 5-18 15-18s15 7 15 18v15M42 75V60m16 15V60"/>
    <path d="M17 75V61c0-10 4-16 12-16 4 0 7 2 9 5M24 75V61M83 75V61c0-10-4-16-12-16-4 0-7 2-9 5M76 75V61"/>
    <path d="M4 75V62c0-9 3-14 10-14 3 0 5 1 7 3M96 75V62c0-9-3-14-10-14-3 0-5 1-7 3"/>
  </g>
</svg>
