<svg xmlns="http://www.w3.org/2000/svg" viewBox="0 0 640 500">
  <defs><style>.ol{stroke:#263344;stroke-width:3;stroke-linecap:round;stroke-linejoin:round}.skin{fill:#fff4eb}.navy{fill:#0A2D5F}.gold{fill:#D8A11D}.blue{fill:#EAF5FF}.green{fill:#EAF4EA}.white{fill:#fff}</style></defs>
  <path d="M59 424c21-125 134-208 268-201 127 7 223 87 245 201" class="blue"/>
  <rect x="112" y="99" width="416" height="257" rx="23" class="white ol"/><rect x="129" y="119" width="382" height="205" rx="12" fill="#f6f9fc"/><circle cx="320" cy="340" r="7" class="gold"/><path d="M278 357h84l16 28h-116z" class="white ol"/>
  <g transform="translate(234 132)"><circle cx="89" cy="49" r="36" class="skin ol"/><path d="M54 48c0-36 18-52 40-52 26 0 40 19 36 55-9-2-19-14-24-28-12 15-31 23-52 25z" class="navy ol"/><path d="M72 47h4m27 0h4" class="ol"/><path d="M82 63c6 4 13 4 19 0" fill="none" class="ol"/><path d="M47 180c3-59 19-88 42-88 25 0 43 30 47 88" class="navy ol"/><path d="M89 92l-17 21 17 16 18-16z" class="white ol"/><path d="M91 129v48" class="ol"/><path d="M48 179h88" class="ol"/><path d="M49 126l-25 30 31 12m81-42 25 28-29 15" fill="none" class="skin ol"/></g>
  <g transform="translate(22 280)"><circle cx="108" cy="45" r="34" class="skin ol"/><path d="M72 43c2-33 18-47 38-47 23 0 40 17 36 48-17 0-31-9-41-22-7 12-18 19-33 21z" fill="#4b3d36" class="ol"/><path d="M91 45h3m25 0h3" class="ol"/><path d="M101 59c5 3 10 3 15 0" fill="none" class="ol"/><path d="M54 170c4-58 22-83 54-83s52 26 56 83" class="green ol"/><path d="M107 88l-18 23 18 15 18-15z" class="white ol"/><path d="M166 160l75-22 9 36-85 6" class="white ol"/><path d="M186 149l45 10" class="ol"/></g>
  <g transform="translate(444 278)"><circle cx="82" cy="46" r="33" class="skin ol"/><path d="M47 49c0-33 14-50 35-50 23 0 37 18 34 51-14-3-25-11-34-25-7 12-19 20-35 24z" class="gold ol"/><path d="M65 48h3m25 0h3" class="ol"/><path d="M75 62c5 3 10 3 15 0" fill="none" class="ol"/><path d="M27 170c4-57 21-82 55-82 33 0 51 25 55 82" class="blue ol"/><path d="M82 89l-18 23 18 15 18-15z" class="white ol"/></g>
  <path d="M288 276h67" class="ol"/><circle cx="370" cy="155" r="6" class="gold"/><path d="M390 155h68m-68 18h49" class="ol"/>
</svg>
